PathFileType	4	(X/Y/Z)	Patient4_TMGait_0pt8_01_left_12.trc.trc
DataRate	CameraRate	NumFrames	NumMarkers	Units	OrigDataRate	OrigDataStartFrame	OrigNumFrames
89.171974522293	89.171974522293	4	33	mm	89.171974522293	18	       141
Frame#	Time	Sacral			L.Shoulder			Chest			R.Shoulder			Neck			R.ASIS			L.ASIS			R.Thigh.Superior			R.Thigh.Lateral			R.Thigh.Inferior			R.Patella			L.Thigh.Superior			L.Thigh.Lateral			L.Thigh.Inferior			L.Patella			L.Shank.Superior			L.Shank.Lateral			L.Shank.Inferior			R.Shank.Superior			R.Shank.Lateral			R.Shank.Inferior			R.Heel			R.Midfoot.Superior			R.Midfoot.Lateral			R.Toe			L.Heel			L.Midfoot.Lateral			L.Midfoot.Superior			L.Toe			L.Elbow			L.Wrist			R.Elbow			R.Wrist			
		X1	Y1	Z1	X2	Y2	Z2	X3	Y3	Z3	X4	Y4	Z4	X5	Y5	Z5	X6	Y6	Z6	X7	Y7	Z7	X8	Y8	Z8	X9	Y9	Z9	X10	Y10	Z10	X11	Y11	Z11	X12	Y12	Z12	X13	Y13	Z13	X14	Y14	Z14	X15	Y15	Z15	X16	Y16	Z16	X17	Y17	Z17	X18	Y18	Z18	X19	Y19	Z19	X20	Y20	Z20	X21	Y21	Z21	X22	Y22	Z22	X23	Y23	Z23	X24	Y24	Z24	X25	Y25	Z25	X26	Y26	Z26	X27	Y27	Z27	X28	Y28	Z28	X29	Y29	Z29	X30	Y30	Z30	X31	Y31	Z31	X32	Y32	Z32	X33	Y33	Z33	

18	12.830642857143	845.314338588930	1006.353927240233	531.738604330497	1013.264448652822	1426.939781493473	332.618020196497	1135.033668269253	1350.968384267203	477.261839689994	1081.763063966648	1428.289280804887	661.177486408669	1025.312336028211	1486.597234799672	489.404440108143	1076.618637282602	933.007243997132	626.920357765345	1039.868771470013	950.886743642402	353.166676842443	1069.466181420024	720.404892299315	600.204143077554	965.268135884102	628.975399501491	665.500527941739	1020.551524630599	562.816933747033	582.831990535402	1000.295598341157	479.382055028567	587.762229926330	1118.715236246704	775.558349858841	387.208450233715	1083.196387672020	649.612744820557	300.623157612082	1183.620015388672	590.682541292275	369.527509744143	1215.556851866549	529.294477586933	362.819551475084	1202.002030486171	457.327131827153	348.816708771229	1146.022713557442	325.911999456971	289.038883310332	1235.479461024556	229.460148201622	345.664654903606	962.796318473695	395.863058706417	594.852118959064	881.331992744025	300.115237668895	656.464306493304	910.568753044402	202.287973626637	591.457067110206	761.198260822697	43.890713094479	558.656225966925	931.842358874976	96.464957027683	598.896033268432	841.910832195245	36.844097769235	635.241910674397	1050.525025880449	41.687224940901	631.628616442835	1161.935185249454	42.137152042827	374.426432929457	1240.885684528418	53.363747422963	299.704233757588	1303.402760005131	137.229300732558	325.466799574753	1440.862723234873	119.199110967337	308.374181481445	853.491619183997	1113.039605222673	239.492504882613	779.815371417570	865.488607201385	244.773844310508	1227.803426943515	1126.842738529035	775.667632187057	1450.380693454652	1208.694173520951	692.742870451132	
19	12.841857142857	846.336448256944	1004.545987696140	530.460695734303	1012.722063076999	1425.866136506289	331.578483761648	1134.902590409285	1349.874442175595	475.845560675192	1081.759696487595	1426.973209681944	659.808033784887	1024.901342649498	1485.129354800673	488.444926414102	1077.676207907834	931.271097729013	625.200552420430	1040.647813555617	949.275744033636	351.447168335901	1068.901053292462	718.378374038709	598.932045535379	963.654542752081	627.796094456266	664.300316292789	1017.996966184745	561.114163683410	581.619984686363	996.685161262605	477.670286441196	586.475067636473	1118.395807635224	772.599090893721	386.157142481256	1082.384929229716	646.968106892282	299.381723685843	1182.154094535932	587.714272704475	368.984879333480	1214.071334242251	527.388493397966	362.581501057868	1202.036623150048	455.959643945496	348.331338053668	1148.972030338048	322.817304672895	289.663129660201	1241.274356256136	228.953975823608	346.316201312643	958.183012719075	394.520699955457	593.872867433619	875.715886349801	299.837881010279	655.915304048373	903.274817101159	201.551916814885	590.978361756975	752.258853827220	44.104667682552	558.733185211363	922.946210153186	96.387739343731	598.791359182820	832.952157071005	36.893250195242	635.246571517502	1041.530756037648	41.459923842433	631.683783659431	1172.299998176921	40.585736985802	376.630157753005	1250.914852190479	52.279598686232	301.623459684916	1312.017466187604	137.416495200280	326.458884371378	1449.809906084013	121.462197375343	309.353107993353	848.100330282553	1115.230644339885	239.597959289925	768.807852088934	869.482106194201	245.794823543823	1234.640523742192	1129.786654871292	772.771117002481	1450.379257477461	1224.924532498901	687.432854240328	
20	12.853071428571	847.544484582212	1002.639211770034	528.942192257433	1012.245153302121	1424.709703392974	330.375480663924	1134.801881522286	1348.807855180009	474.346075286670	1081.633069156472	1425.648439436795	658.317575954525	1024.466166558895	1483.618920196347	487.325371711767	1078.850138834598	929.469921975568	623.361308613684	1041.683397578301	947.643328266563	349.591714939783	1068.540587530011	716.303393895472	597.468499601353	962.301690578681	626.549103079157	662.936648952229	1015.773076871257	559.337013343964	580.269400492372	993.386481751053	475.851493749053	585.037494649960	1118.652903045561	769.928692350438	384.870673320436	1081.859660908893	644.281737015106	298.411140954030	1181.366004994085	585.017005027267	368.170390024359	1213.055387961811	525.254178120792	362.120951540472	1201.994378313485	454.132470238256	347.806927264262	1150.476468155888	319.810837411744	290.744397772216	1244.914843010965	227.862216938416	347.159703035683	953.850823730943	393.088522904256	592.762048017993	870.308878840173	299.581327827530	655.281179355895	896.113488352377	200.809653455544	590.458642048183	743.346241312952	44.414634597925	558.813569631354	914.107905849337	96.341823267282	598.684722384895	824.028956365153	36.990808436403	635.249083331610	1032.558535034541	41.193674902246	631.757336712110	1178.968631195384	39.422890569315	379.480214863459	1256.825574187583	51.055946145238	303.743466003213	1317.466868776716	136.619564195609	327.501146588487	1455.169657973821	121.397303878271	309.463343518002	843.539766712830	1116.972262650387	239.660624932952	759.015443318102	873.034892073365	246.720052612396	1240.873333390470	1132.581687367255	769.751922200057	1449.441803961562	1239.788822091708	682.283543941457	
21	12.864285714286	848.914170543340	1000.672077556954	527.170611597912	1011.843066502348	1423.472458781517	328.999483868419	1134.743129105246	1347.775311785258	472.753870587429	1081.398621117267	1424.329380248601	656.701065863346	1024.021333239455	1482.078436464820	486.031831118517	1080.120110784736	927.617845419656	621.416840653001	1042.987565687080	946.008020586716	347.609988505525	1068.342983320029	714.192183330233	595.839055806030	961.156569845732	625.250080911320	661.422067790644	1013.850525637339	557.492960472545	578.806537109045	990.378284437173	473.918625360525	583.476886718527	1119.531488991422	767.601973687886	383.333296276076	1081.630033527561	641.588367962717	297.716871550096	1181.288338094462	582.632281942846	367.087943009030	1212.536315074053	522.936227602000	361.487733764235	1201.962053870686	451.886763559033	347.288507465320	1150.752284536361	316.876207735633	292.127322616554	1246.586133581016	226.129251764938	348.150742130311	949.766520432089	391.566929686998	591.526337109045	865.077655760377	299.351348508962	654.566393560465	889.064629497441	200.077095056347	589.906212737096	734.451468256126	44.838197414674	558.905835892170	905.326779540960	96.336537337681	598.581187502759	815.137491295548	37.150122409445	635.252507297192	1023.611842520077	40.894901185802	631.848004626456	1182.081186238650	38.523417128450	382.675811681907	1258.901163424433	49.599898737844	305.894164521795	1320.011558991679	134.750689798410	328.599502548943	1457.281679737728	118.902819216224	308.934092930748	839.792448051345	1118.234361003000	239.630195992290	750.495066553738	876.071995983247	247.502406078070	1246.464771538229	1135.173775196971	766.642583353155	1447.700244933277	1253.232784264508	677.306087157212	
